<svg width="16" height="16" version="1" xmlns="http://www.w3.org/2000/svg">
  <path
     style="fill:#ffffff"
     d="M 9,4 13,8 9,12 V 9.5 C 7,9.5 5,10 3,12 3.5,9 5,6.5 9,6.5 Z M 5.5,8.5 7.5,10 7.5,7 Z" 
     id="kexec-arrow" />
  
  <path
     style="fill:#ffffff; opacity:0.6"
     d="M 8,2 C 4.686,2 2,4.686 2,8 2,9.15 2.33,10.22 2.9,11.12 L 4.1,9.92 C 3.73,9.36 3.5,8.7 3.5,8 3.5,5.51 5.51,3.5 8,3.5 c 2.49,0 4.5,2.01 4.5,4.5 0,0.7 -0.23,1.36 -0.6,1.92 l 1.2,1.2 C 13.67,10.22 14,9.15 14,8 14,4.686 11.314,2 8,2 Z"
     id="reboot-ring" />
</svg>
